<svg width="540" height="161" viewBox="0 0 540 161" fill="none" xmlns="http://www.w3.org/2000/svg">
<path d="M536.418 142.041C536.418 144.055 536.021 146.049 535.249 147.909C534.478 149.769 533.347 151.459 531.922 152.882C530.497 154.306 528.806 155.434 526.944 156.203C525.082 156.972 523.088 157.367 521.073 157.365H18.9262C14.8563 157.369 10.9513 155.757 8.07006 152.884C5.18881 150.01 3.56722 146.11 3.56192 142.041V19.8352C3.56722 15.7645 5.18817 11.8623 8.06884 8.98539C10.9495 6.10848 14.8544 4.49203 18.9262 4.49097H521.069C523.085 4.49097 525.08 4.88789 526.942 5.65906C528.804 6.43023 530.496 7.56054 531.921 8.98543C533.346 10.4103 534.476 12.1019 535.247 13.9635C536.018 15.8251 536.414 17.8204 536.414 19.8352L536.418 142.041Z" fill="white"/>
<path d="M521.073 160.93H18.9262C13.9125 160.929 9.10404 158.94 5.55583 155.398C2.00763 151.857 0.00953966 147.053 0 142.041L0 19.8392C0.00741701 14.8244 2.00419 10.0172 5.55228 6.47232C9.10037 2.92742 13.91 0.934225 18.9262 0.929993L521.069 0.929993C526.085 0.936337 530.893 2.93021 534.441 6.47465C537.988 10.0191 539.986 14.825 539.995 19.8392V142.041C540.003 152.46 531.499 160.93 521.073 160.93V160.93Z" fill="#A6A6A6"/>
<path d="M536.418 142.041C536.418 144.055 536.021 146.049 535.249 147.909C534.478 149.769 533.347 151.459 531.922 152.882C530.497 154.306 528.806 155.434 526.944 156.203C525.082 156.972 523.088 157.367 521.073 157.365H18.9262C14.8563 157.369 10.9513 155.757 8.07006 152.884C5.18881 150.01 3.56722 146.11 3.56192 142.041V19.8352C3.56722 15.7645 5.18817 11.8623 8.06884 8.98539C10.9495 6.10848 14.8544 4.49203 18.9262 4.49097H521.069C523.085 4.49097 525.08 4.88789 526.942 5.65906C528.804 6.43023 530.496 7.56054 531.921 8.98543C533.346 10.4103 534.476 12.1019 535.247 13.9635C536.018 15.8251 536.414 17.8204 536.414 19.8352L536.418 142.041Z" fill="black"/>
<path d="M120.577 80.0878C120.461 67.1922 131.139 60.9185 131.627 60.6264C125.58 51.812 116.207 50.6077 112.913 50.5116C105.041 49.6834 97.4046 55.2209 93.3944 55.2209C89.3042 55.2209 83.1289 50.5916 76.4733 50.7277C67.9087 50.8597 59.8963 55.8171 55.502 63.5152C46.4331 79.2115 53.1967 102.278 61.8854 114.965C66.2318 121.183 71.3105 128.117 77.9581 127.873C84.4616 127.609 86.8909 123.732 94.7391 123.732C102.515 123.732 104.797 127.873 111.576 127.717C118.556 127.609 122.95 121.475 127.145 115.205C132.167 108.087 134.184 101.07 134.264 100.709C134.104 100.653 120.713 95.54 120.577 80.0878V80.0878ZM107.77 42.1653C111.268 37.7921 113.661 31.8425 112.997 25.8048C107.934 26.0289 101.603 29.3058 97.9569 33.583C94.7311 37.352 91.8496 43.5297 92.594 49.3393C98.281 49.7634 104.12 46.4705 107.77 42.1653V42.1653Z" fill="white"/>
<path d="M521.073 0.929993H252.108L357.457 160.93H521.073C526.088 160.926 530.896 158.934 534.444 155.39C537.992 151.847 539.99 147.042 539.999 142.029V19.8392C539.991 14.8247 537.994 10.0182 534.446 6.47348C530.898 2.92881 526.089 0.935282 521.073 0.929993V0.929993Z" fill="url(#paint0_linear_56_4)"/>
<path d="M214.776 126.981H205.687L200.708 111.34H183.403L178.66 126.981H169.812L186.961 73.734H197.551L214.776 126.981V126.981ZM199.208 104.779L194.705 90.8747C194.229 89.4543 193.332 86.1094 192.02 80.844H191.86C191.331 83.1086 190.487 86.4535 189.33 90.8747L184.904 104.779H199.208ZM258.792 107.311C258.792 113.841 257.019 119.002 253.469 122.791C250.291 126.164 246.341 127.849 241.63 127.849C236.544 127.849 232.886 126.036 230.664 122.403V142.549H222.132V101.206C222.132 97.1044 222.024 92.8993 221.816 88.5861H229.32L229.796 94.6718H229.956C232.802 90.0865 237.12 87.7939 242.915 87.7939C247.446 87.7939 251.228 89.5824 254.253 93.1633C257.275 96.7523 258.792 101.466 258.792 107.311ZM250.099 107.623C250.099 103.886 249.259 100.805 247.57 98.3768C245.725 95.8521 243.247 94.5877 240.142 94.5877C238.036 94.5877 236.123 95.2919 234.415 96.6803C232.702 98.0807 231.581 99.9092 231.057 102.174C230.823 103.021 230.69 103.892 230.66 104.771V111.176C230.66 113.965 231.517 116.322 233.23 118.25C234.943 120.171 237.168 121.135 239.905 121.135C243.119 121.135 245.621 119.891 247.41 117.422C249.202 114.945 250.099 111.68 250.099 107.623V107.623ZM302.963 107.311C302.963 113.841 301.191 119.002 297.641 122.791C294.459 126.164 290.513 127.849 285.798 127.849C280.712 127.849 277.054 126.036 274.832 122.403V142.549H266.3V101.206C266.3 97.1044 266.192 92.8993 265.984 88.5861H273.488L273.964 94.6718H274.124C276.965 90.0865 281.284 87.7939 287.083 87.7939C291.609 87.7939 295.391 89.5824 298.425 93.1633C301.443 96.7523 302.963 101.466 302.963 107.311V107.311ZM294.267 107.623C294.267 103.886 293.422 100.805 291.733 98.3768C289.888 95.8521 287.419 94.5877 284.313 94.5877C282.208 94.5877 280.295 95.2919 278.578 96.6803C276.865 98.0807 275.749 99.9092 275.225 102.174C274.964 103.23 274.824 104.09 274.824 104.771V111.176C274.824 113.965 275.685 116.322 277.39 118.25C279.103 120.167 281.328 121.135 284.073 121.135C287.291 121.135 289.792 119.891 291.577 117.422C293.37 114.945 294.267 111.68 294.267 107.623V107.623ZM352.35 112.045C352.35 116.578 350.765 120.263 347.616 123.108C344.15 126.212 339.311 127.769 333.108 127.769C327.377 127.769 322.782 126.665 319.316 124.452L321.289 117.342C325.031 119.559 329.142 120.663 333.616 120.663C336.834 120.663 339.335 119.935 341.12 118.49C342.909 117.042 343.814 115.105 343.814 112.689C343.814 110.524 343.065 108.712 341.596 107.235C340.12 105.763 337.678 104.39 334.248 103.13C324.923 99.6531 320.257 94.5677 320.257 87.8779C320.257 83.5087 321.906 79.9317 325.195 77.1349C328.485 74.3422 332.848 72.9458 338.275 72.9458C343.121 72.9458 347.159 73.79 350.365 75.4745L348.224 82.4284C345.206 80.7959 341.8 79.9797 337.99 79.9797C334.981 79.9797 332.62 80.7199 330.931 82.1923C329.51 83.5087 328.789 85.1131 328.789 87.0177C328.789 89.1182 329.61 90.8627 331.243 92.2311C332.66 93.4914 335.245 94.8638 338.983 96.3362C343.569 98.1847 346.939 100.337 349.096 102.81C351.27 105.283 352.35 108.368 352.35 112.045ZM380.633 94.9878H371.228V113.629C371.228 118.37 372.885 120.735 376.207 120.735C377.732 120.735 378.997 120.607 379.997 120.339L380.233 126.817C378.552 127.445 376.339 127.761 373.598 127.761C370.228 127.761 367.594 126.733 365.693 124.676C363.8 122.619 362.848 119.174 362.848 114.325V94.9718H357.245V88.5701H362.848V81.5402L371.228 79.0115V88.5701H380.633V94.9878V94.9878ZM422.984 107.467C422.984 113.369 421.295 118.214 417.926 122.003C414.4 125.904 409.709 127.849 403.862 127.849C398.219 127.849 393.732 125.98 390.387 122.247C387.041 118.506 385.368 113.793 385.368 108.107C385.368 102.158 387.097 97.2845 390.543 93.4954C393.997 89.7024 398.647 87.8059 404.494 87.8059C410.129 87.8059 414.656 89.6784 418.082 93.4154C421.355 97.0404 422.984 101.722 422.984 107.467ZM414.139 107.663C414.139 104.146 413.379 101.13 411.854 98.6048C410.065 95.556 407.504 94.0316 404.186 94.0316C400.768 94.0316 398.147 95.556 396.362 98.6048C394.833 101.13 394.073 104.198 394.073 107.823C394.073 111.344 394.833 114.369 396.362 116.886C398.207 119.935 400.78 121.459 404.114 121.459C407.376 121.459 409.933 119.903 411.782 116.81C413.351 114.225 414.139 111.188 414.139 107.663ZM450.731 96.0882C449.844 95.928 448.944 95.849 448.042 95.8521C445.04 95.8521 442.719 96.9804 441.086 99.253C439.669 101.254 438.957 103.782 438.957 106.835V126.981H430.424V100.677C430.432 96.647 430.349 92.6168 430.176 88.5901H437.608L437.92 95.9361H438.156C439.061 93.4114 440.478 91.3749 442.423 89.8504C444.203 88.5184 446.366 87.797 448.59 87.7939C449.379 87.7939 450.091 87.8499 450.723 87.9499L450.731 96.0882V96.0882ZM488.892 105.967C488.913 107.264 488.809 108.559 488.58 109.836H462.982C463.078 113.629 464.319 116.534 466.696 118.534C468.853 120.319 471.643 121.215 475.068 121.215C478.858 121.215 482.316 120.615 485.426 119.403L486.763 125.32C483.129 126.905 478.838 127.693 473.888 127.693C467.933 127.693 463.258 125.94 459.856 122.443C456.462 118.942 454.761 114.237 454.761 108.344C454.761 102.558 456.342 97.7366 459.508 93.8915C462.822 89.7864 467.3 87.7339 472.935 87.7339C478.47 87.7339 482.66 89.7864 485.506 93.8915C487.759 97.1444 488.892 101.178 488.892 105.967V105.967ZM480.755 103.754C480.816 101.222 480.255 99.041 479.099 97.1965C477.622 94.8198 475.349 93.6355 472.303 93.6355C469.513 93.6355 467.24 94.7918 465.511 97.1124C464.09 98.9569 463.246 101.174 462.986 103.746L480.755 103.754Z" fill="white"/>
<path d="M180.942 54.9088C178.568 54.9088 176.515 54.7928 174.806 54.5967V28.8537C177.196 28.4845 179.612 28.3026 182.03 28.3095C191.816 28.3095 196.322 33.1228 196.322 40.969C196.322 50.0195 190.999 54.9088 180.942 54.9088ZM182.374 31.6104C181.054 31.6104 179.929 31.6904 178.997 31.8825V51.4519C179.501 51.5319 180.469 51.5679 181.83 51.5679C188.242 51.5679 191.892 47.9189 191.892 41.085C191.892 34.9914 188.59 31.6104 182.374 31.6104V31.6104ZM210.366 55.1049C204.851 55.1049 201.277 50.9878 201.277 45.3982C201.277 39.5726 204.927 35.4195 210.678 35.4195C216.113 35.4195 219.767 39.3406 219.767 45.0901C219.767 50.9878 216.001 55.1049 210.366 55.1049ZM210.526 38.4843C207.496 38.4843 205.555 41.3171 205.555 45.2782C205.555 49.1633 207.536 51.996 210.486 51.996C213.435 51.996 215.416 48.9672 215.416 45.1982C215.416 41.3571 213.475 38.4843 210.526 38.4843ZM251.216 35.8076L245.312 54.6768H241.466L239.021 46.4825C238.413 44.4781 237.907 42.4443 237.504 40.3888H237.424C237.116 42.4454 236.532 44.506 235.911 46.4825L233.31 54.6768H229.424L223.869 35.8076H228.179L230.316 44.778C230.821 46.9146 231.245 48.9312 231.597 50.8357H231.677C231.985 49.2473 232.489 47.2627 233.23 44.8181L235.911 35.8116H239.329L241.895 44.626C242.515 46.7626 243.019 48.8592 243.411 50.8397H243.523C243.796 48.8992 244.224 46.8386 244.804 44.626L247.097 35.8116L251.216 35.8076V35.8076ZM272.947 54.6768H268.753V43.8418C268.753 40.5049 267.472 38.8324 264.947 38.8324C262.462 38.8324 260.753 40.969 260.753 43.4537V54.6768H256.558V41.2011C256.558 39.5326 256.518 37.7441 256.402 35.8036H260.092L260.288 38.7164H260.405C261.533 36.6998 263.822 35.4195 266.388 35.4195C270.35 35.4195 272.951 38.4483 272.951 43.3777L272.947 54.6768V54.6768ZM284.514 54.6768H280.315V27.1492H284.514V54.6768ZM299.806 55.1049C294.295 55.1049 290.717 50.9878 290.717 45.3982C290.717 39.5726 294.367 35.4195 300.114 35.4195C305.553 35.4195 309.203 39.3406 309.203 45.0901C309.207 50.9878 305.437 55.1049 299.806 55.1049ZM299.962 38.4843C296.932 38.4843 294.991 41.3171 294.991 45.2782C294.991 49.1633 296.976 51.996 299.918 51.996C302.871 51.996 304.849 48.9672 304.849 45.1982C304.853 41.3571 302.915 38.4843 299.962 38.4843V38.4843ZM325.74 54.6768L325.436 52.5042H325.324C324.043 54.2527 322.174 55.1049 319.805 55.1049C316.423 55.1049 314.021 52.7362 314.021 49.5514C314.021 44.8941 318.06 42.4854 325.051 42.4854V42.1373C325.051 39.6526 323.735 38.4083 321.133 38.4083C319.272 38.4083 317.639 38.8764 316.203 39.8087L315.35 37.0519C317.095 35.9636 319.272 35.4195 321.83 35.4195C326.76 35.4195 329.25 38.0202 329.25 43.2256V50.1755C329.25 52.0801 329.334 53.5565 329.522 54.6808L325.74 54.6768V54.6768ZM325.163 45.2782C320.505 45.2782 318.168 46.4065 318.168 49.0832C318.168 51.0638 319.372 52.032 321.045 52.032C323.178 52.032 325.163 50.4036 325.163 48.191V45.2782V45.2782ZM349.617 54.6768L349.421 51.6479H349.305C348.1 53.9366 346.075 55.1049 343.245 55.1049C338.695 55.1049 335.325 51.1038 335.325 45.4742C335.325 39.5726 338.819 35.4155 343.589 35.4155C346.115 35.4155 347.904 36.2677 348.912 37.9802H348.996V27.1492H353.195V49.5914C353.195 51.4159 353.239 53.1243 353.351 54.6768H349.617ZM348.996 43.5737C348.996 40.933 347.247 38.6804 344.578 38.6804C341.468 38.6804 339.567 41.4371 339.567 45.3182C339.567 49.1232 341.54 51.728 344.494 51.728C347.131 51.728 348.996 49.4353 348.996 46.7186V43.5737ZM379.813 55.1049C374.302 55.1049 370.728 50.9878 370.728 45.3982C370.728 39.5726 374.378 35.4195 380.125 35.4195C385.564 35.4195 389.214 39.3406 389.214 45.0901C389.218 50.9878 385.452 55.1049 379.813 55.1049ZM379.969 38.4843C376.943 38.4843 375.002 41.3171 375.002 45.2782C375.002 49.1633 376.983 51.996 379.929 51.996C382.883 51.996 384.86 48.9672 384.86 45.1982C384.868 41.3571 382.927 38.4843 379.969 38.4843ZM411.77 54.6768H407.572V43.8418C407.572 40.5049 406.291 38.8324 403.766 38.8324C401.281 38.8324 399.576 40.969 399.576 43.4537V54.6768H395.377V41.2011C395.377 39.5326 395.337 37.7441 395.221 35.8036H398.911L399.107 38.7164H399.223C400.348 36.6998 402.641 35.4155 405.203 35.4155C409.165 35.4155 411.77 38.4443 411.77 43.3737V54.6768ZM439.989 38.9524H435.375V48.115C435.375 50.4476 436.183 51.6119 437.816 51.6119C438.557 51.6119 439.177 51.5319 439.677 51.4159L439.793 54.6007C438.981 54.9128 437.892 55.0689 436.54 55.0689C433.234 55.0689 431.257 53.2444 431.257 48.4671V38.9524H428.503V35.8076H431.257V32.3506L435.375 31.1063V35.8036H439.989V38.9524V38.9524ZM462.193 54.6768H458.003V43.9218C458.003 40.5449 456.726 38.8364 454.197 38.8364C452.024 38.8364 449.999 40.3128 449.999 43.3016V54.6768H445.809V27.1492H449.999V38.4843H450.083C451.404 36.4278 453.317 35.4155 455.758 35.4155C459.752 35.4155 462.193 38.5203 462.193 43.4537V54.6768V54.6768ZM484.942 46.2505H472.355C472.435 49.8234 474.8 51.84 478.302 51.84C480.163 51.84 481.876 51.5279 483.389 50.9477L484.041 53.8605C482.256 54.6368 480.155 55.0249 477.71 55.0249C471.807 55.0249 468.313 51.2958 468.313 45.5142C468.313 39.7287 471.891 35.3795 477.238 35.3795C482.06 35.3795 485.086 38.9524 485.086 44.3499C485.113 44.9869 485.065 45.6248 484.942 46.2505V46.2505ZM481.096 43.2616C481.096 40.3488 479.627 38.2923 476.945 38.2923C474.536 38.2923 472.631 40.3888 472.359 43.2616H481.096V43.2616Z" fill="white"/>
<defs>
<linearGradient id="paint0_linear_56_4" x1="396.049" y1="161.355" x2="396.049" y2="-415.682" gradientUnits="userSpaceOnUse">
<stop stop-color="#1A1A1A" stop-opacity="0.1"/>
<stop offset="0.123" stop-color="#212121" stop-opacity="0.151"/>
<stop offset="0.308" stop-color="#353535" stop-opacity="0.227"/>
<stop offset="0.532" stop-color="#575757" stop-opacity="0.318"/>
<stop offset="0.783" stop-color="#858585" stop-opacity="0.421"/>
<stop offset="1" stop-color="#B3B3B3" stop-opacity="0.51"/>
</linearGradient>
</defs>
</svg>
