<svg width="180" height="54" viewBox="0 0 180 54" fill="none" xmlns="http://www.w3.org/2000/svg">
<g clip-path="url(#clip0_56_15)">
<path d="M173.33 53.333H6.66999C3.00339 53.333 0.00349426 50.3331 0.00349426 46.6665V6.66751C0.00349426 3.00091 3.00339 0.00100708 6.66999 0.00100708H173.33C176.997 0.00100708 179.997 3.00091 179.997 6.66751V46.6665C179.997 50.3331 176.997 53.333 173.33 53.333Z" fill="#100F0D"/>
<path d="M173.33 0.00100708H6.66999C3.00339 0.00100708 0.00349426 3.00091 0.00349426 6.66751V46.6665C0.00349426 50.3331 3.00339 53.333 6.66999 53.333H173.33C176.997 53.333 179.997 50.3331 179.997 46.6665V6.66751C179.997 3.00091 176.997 0.00100708 173.33 0.00100708V0.00100708ZM173.33 1.06711C176.418 1.06711 178.93 3.57961 178.93 6.66751V46.6665C178.93 49.7544 176.418 52.2669 173.33 52.2669H6.66999C3.58209 52.2669 1.07069 49.7544 1.07069 46.6665V6.66751C1.07069 3.57961 3.58209 1.06711 6.66999 1.06711H173.33" fill="#A2A2A1"/>
<path d="M142.58 40H145.068V23.331H142.58V40ZM164.989 29.336L162.137 36.5624H162.052L159.092 29.336H156.412L160.852 39.436L158.32 45.0545H160.915L167.756 29.3365L164.989 29.336ZM150.879 38.1066C150.066 38.1066 148.928 37.6987 148.928 36.691C148.928 35.4045 150.344 34.9113 151.566 34.9113C152.659 34.9113 153.175 35.1468 153.839 35.4686C153.646 37.0128 152.316 38.1065 150.879 38.1065L150.879 38.1066ZM151.18 28.9714C149.379 28.9714 147.514 29.7651 146.742 31.5235L148.95 32.4453C149.422 31.5235 150.3 31.2235 151.223 31.2235C152.51 31.2235 153.818 31.9948 153.839 33.3677V33.5391C153.388 33.2817 152.423 32.8959 151.244 32.8959C148.863 32.8959 146.44 34.2036 146.44 36.6483C146.44 38.8785 148.392 40.3154 150.579 40.3154C152.251 40.3154 153.175 39.5648 153.752 38.6853H153.839V39.9727H156.242V33.5817C156.242 30.6224 154.031 28.9714 151.18 28.9714V28.9714ZM135.804 31.3651H132.266V25.6518H135.804C137.664 25.6518 138.72 27.1914 138.72 28.5084C138.72 29.8001 137.664 31.3651 135.804 31.3651ZM135.74 23.3314H129.779V40.0004H132.266V33.6855H135.74C138.498 33.6855 141.208 31.6897 141.208 28.509C141.208 25.3289 138.498 23.3321 135.74 23.3321L135.74 23.3314ZM103.233 38.1094C101.515 38.1094 100.076 36.6698 100.076 34.6944C100.076 32.696 101.515 31.2361 103.233 31.2361C104.93 31.2361 106.262 32.6961 106.262 34.6944C106.262 36.6698 104.93 38.1094 103.233 38.1094ZM106.09 30.2691H106.004C105.446 29.6034 104.371 29.0019 103.019 29.0019C100.183 29.0019 97.5839 31.494 97.5839 34.6944C97.5839 37.873 100.183 40.3432 103.019 40.3432C104.371 40.3432 105.446 39.7416 106.004 39.0547H106.09V39.8703C106.09 42.0406 104.93 43.1999 103.061 43.1999C101.537 43.1999 100.592 42.1046 100.205 41.1811L98.0356 42.0831C98.658 43.5861 100.312 45.4341 103.062 45.4341C105.983 45.4341 108.454 43.7153 108.454 39.5264V29.3454H106.09L106.09 30.2691ZM110.172 39.9995H112.663V23.3305H110.172V39.9995ZM116.336 34.5007C116.272 32.3096 118.034 31.1929 119.301 31.1929C120.289 31.1929 121.126 31.6871 121.406 32.3955L116.336 34.5007ZM124.069 32.6101C123.596 31.3435 122.157 29.0019 119.215 29.0019C116.293 29.0019 113.866 31.3002 113.866 34.6726C113.866 37.8517 116.272 40.3433 119.493 40.3433C122.092 40.3433 123.597 38.7543 124.22 37.8303L122.287 36.5413C121.642 37.4866 120.762 38.1095 119.493 38.1095C118.227 38.1095 117.324 37.5294 116.745 36.3909L124.327 33.255L124.069 32.6101ZM63.6598 30.7419V33.1476H69.4163C69.2445 34.5008 68.7934 35.4887 68.1059 36.1762C67.268 37.0136 65.9576 37.9376 63.6597 37.9376C60.1154 37.9376 57.3447 35.0809 57.3447 31.5367C57.3447 27.9925 60.1154 25.1354 63.6597 25.1354C65.5715 25.1354 66.9674 25.8874 67.9985 26.854L69.6959 25.1567C68.2563 23.7822 66.3449 22.7297 63.6597 22.7297C58.8045 22.7297 54.7234 26.6821 54.7234 31.5367C54.7234 36.3908 58.8045 40.3433 63.6597 40.3433C66.2799 40.3433 68.2564 39.484 69.8027 37.8731C71.3923 36.2835 71.8865 34.0497 71.8865 32.2451C71.8865 31.6872 71.8432 31.1717 71.7573 30.7419H63.6598ZM78.4318 38.1094C76.713 38.1094 75.2308 36.6917 75.2308 34.6726C75.2308 32.632 76.713 31.2362 78.4318 31.2362C80.1499 31.2362 81.6321 32.632 81.6321 34.6726C81.6321 36.6917 80.1499 38.1094 78.4318 38.1094ZM78.4318 29.0019C75.2948 29.0019 72.7391 31.3861 72.7391 34.6726C72.7391 37.9376 75.2948 40.3433 78.4318 40.3433C81.5676 40.3433 84.1238 37.9376 84.1238 34.6726C84.1238 31.3861 81.5676 29.0019 78.4318 29.0019V29.0019ZM90.8488 38.1094C89.1312 38.1094 87.6485 36.6917 87.6485 34.6726C87.6485 32.632 89.1313 31.2362 90.8488 31.2362C92.5676 31.2362 94.0493 32.632 94.0493 34.6726C94.0493 36.6917 92.5676 38.1094 90.8488 38.1094ZM90.8488 29.0019C87.713 29.0019 85.1573 31.3861 85.1573 34.6726C85.1573 37.9376 87.713 40.3433 90.8488 40.3433C93.9858 40.3433 96.5415 37.9376 96.5415 34.6726C96.5415 31.3861 93.9858 29.0019 90.8488 29.0019" fill="white"/>
<mask id="path-4-inside-1_56_15" fill="white">
<path d="M27.622 25.899L13.428 40.965C13.4285 40.9681 13.4296 40.9707 13.4301 40.9739C13.8654 42.6099 15.3597 43.8145 17.1331 43.8145C17.842 43.8145 18.5076 43.6228 19.0784 43.2864L19.1237 43.2598L35.1017 34.0398L27.6227 25.8988"/>
</mask>
<path d="M27.622 25.899L13.428 40.965C13.4285 40.9681 13.4296 40.9707 13.4301 40.9739C13.8654 42.6099 15.3597 43.8145 17.1331 43.8145C17.842 43.8145 18.5076 43.6228 19.0784 43.2864L19.1237 43.2598L35.1017 34.0398L27.6227 25.8988" fill="white"/>
<path d="M13.428 40.965L12.7001 40.2793L12.3577 40.6427L12.4425 41.1348L13.428 40.965ZM13.4301 40.9739L12.4421 41.1283L12.4502 41.1802L12.4637 41.231L13.4301 40.9739ZM19.0784 43.2864L18.5728 42.4236L18.5706 42.4249L19.0784 43.2864ZM19.1237 43.2598L18.6239 42.3937L18.6182 42.397L19.1237 43.2598ZM35.1017 34.0398L35.6015 34.906L36.6824 34.2823L35.8381 33.3633L35.1017 34.0398ZM26.8941 25.2133L12.7001 40.2793L14.1559 41.6507L28.3498 26.5847L26.8941 25.2133ZM12.4425 41.1348C12.4481 41.1672 12.4542 41.1934 12.4585 41.2103C12.4606 41.2187 12.4624 41.2254 12.4634 41.2293C12.464 41.2313 12.4644 41.2329 12.4646 41.2338C12.4648 41.2342 12.4651 41.2356 12.4649 41.2349C12.4649 41.2348 12.4639 41.2313 12.4627 41.2268C12.4615 41.222 12.4596 41.2146 12.4574 41.2056C12.453 41.1872 12.4471 41.1607 12.4421 41.1283L14.4181 40.8195C14.4128 40.7855 14.4066 40.7574 14.4019 40.7376C14.3995 40.7278 14.3974 40.7197 14.396 40.7142C14.3946 40.709 14.3934 40.7047 14.3932 40.704C14.3926 40.7019 14.3934 40.7048 14.3941 40.7073C14.395 40.7105 14.3966 40.7165 14.3985 40.7242C14.4023 40.7396 14.4082 40.7644 14.4135 40.7952L12.4425 41.1348ZM12.4637 41.231C13.013 43.2952 14.8964 44.8145 17.1331 44.8145V42.8145C15.823 42.8145 14.7179 41.9246 14.3965 40.7168L12.4637 41.231ZM17.1331 44.8145C18.0243 44.8145 18.8647 44.5731 19.5862 44.1479L18.5706 42.4249C18.1504 42.6726 17.6597 42.8145 17.1331 42.8145V44.8145ZM19.584 44.1492L19.6293 44.1226L18.6182 42.397L18.5728 42.4236L19.584 44.1492ZM19.6235 44.126L35.6015 34.906L34.6019 33.1737L18.6239 42.3937L19.6235 44.126ZM35.8381 33.3633L28.3591 25.2223L26.8863 26.5754L34.3653 34.7164L35.8381 33.3633Z" fill="black" mask="url(#path-4-inside-1_56_15)"/>
<mask id="path-6-inside-2_56_15" fill="white">
<path d="M41.983 23.334L41.9694 23.3247L35.0712 19.3257L27.2995 26.2413L35.0982 34.039L41.96 30.0798C43.163 29.4303 43.9797 28.1621 43.9797 26.6996C43.9797 25.2476 43.174 23.9857 41.9829 23.3341"/>
</mask>
<path d="M41.983 23.334L41.9694 23.3247L35.0712 19.3257L27.2995 26.2413L35.0982 34.039L41.96 30.0798C43.163 29.4303 43.9797 28.1621 43.9797 26.6996C43.9797 25.2476 43.174 23.9857 41.9829 23.3341" fill="white"/>
<path d="M41.9694 23.3247L42.5338 22.4992L42.5031 22.4782L42.4709 22.4596L41.9694 23.3247ZM35.0712 19.3257L35.5727 18.4606L34.9469 18.0977L34.4064 18.5786L35.0712 19.3257ZM27.2995 26.2413L26.6347 25.4942L25.8428 26.1989L26.5924 26.9485L27.2995 26.2413ZM35.0982 34.039L34.3911 34.7462L34.9336 35.2885L35.598 34.9052L35.0982 34.039ZM41.96 30.0798L41.4849 29.1998L41.4725 29.2066L41.4602 29.2136L41.96 30.0798ZM42.5474 22.5085L42.5338 22.4992L41.405 24.1502L41.4186 24.1595L42.5474 22.5085ZM42.4709 22.4596L35.5727 18.4606L34.5697 20.1908L41.4679 24.1898L42.4709 22.4596ZM34.4064 18.5786L26.6347 25.4942L27.9643 26.9884L35.736 20.0728L34.4064 18.5786ZM26.5924 26.9485L34.3911 34.7462L35.8053 33.3318L28.0066 25.5341L26.5924 26.9485ZM35.598 34.9052L42.4598 30.946L41.4602 29.2136L34.5984 33.1728L35.598 34.9052ZM42.4351 30.9598C43.9477 30.1432 44.9797 28.545 44.9797 26.6996H42.9797C42.9797 27.7792 42.3783 28.7175 41.4849 29.1998L42.4351 30.9598ZM44.9797 26.6996C44.9797 24.8676 43.9616 23.2767 42.4628 22.4568L41.503 24.2114C42.3863 24.6947 42.9797 25.6276 42.9797 26.6996H44.9797Z" fill="black" mask="url(#path-6-inside-2_56_15)"/>
<mask id="path-8-inside-3_56_15" fill="white">
<path d="M13.426 12.37C13.3407 12.6847 13.2958 13.0143 13.2958 13.3565V39.9795C13.2958 40.3211 13.3401 40.6518 13.4265 40.9654L28.1105 26.2844L13.4265 12.3704"/>
</mask>
<path d="M13.426 12.37C13.3407 12.6847 13.2958 13.0143 13.2958 13.3565V39.9795C13.2958 40.3211 13.3401 40.6518 13.4265 40.9654L28.1105 26.2844L13.4265 12.3704" fill="white"/>
<path d="M13.4265 40.9654L12.4625 41.231L12.9188 42.8871L14.1336 41.6726L13.4265 40.9654ZM28.1105 26.2844L28.8176 26.9916L29.5441 26.2652L28.7984 25.5585L28.1105 26.2844ZM12.4609 12.1083C12.3523 12.5085 12.2958 12.9261 12.2958 13.3565H14.2958C14.2958 13.1024 14.329 12.8608 14.3911 12.6317L12.4609 12.1083ZM12.2958 13.3565V39.9795H14.2958V13.3565H12.2958ZM12.2958 39.9795C12.2958 40.4078 12.3514 40.828 12.4625 41.231L14.3906 40.6997C14.3289 40.4756 14.2958 40.2344 14.2958 39.9795H12.2958ZM14.1336 41.6726L28.8176 26.9916L27.4035 25.5772L12.7195 40.2582L14.1336 41.6726ZM28.7984 25.5585L14.1144 11.6445L12.7387 13.0963L27.4227 27.0103L28.7984 25.5585Z" fill="black" mask="url(#path-8-inside-3_56_15)"/>
<mask id="path-10-inside-4_56_15" fill="white">
<path d="M27.727 26.668L35.0743 19.3229L19.1143 10.0695C18.5342 9.72204 17.8571 9.52151 17.1326 9.52151C15.3592 9.52151 13.8629 10.7283 13.4275 12.3662C13.427 12.3678 13.427 12.3689 13.427 12.3703L27.727 26.6683"/>
</mask>
<path d="M27.727 26.668L35.0743 19.3229L19.1143 10.0695C18.5342 9.72204 17.8571 9.52151 17.1326 9.52151C15.3592 9.52151 13.8629 10.7283 13.4275 12.3662C13.427 12.3678 13.427 12.3689 13.427 12.3703L27.727 26.6683" fill="white"/>
<path d="M35.0743 19.3229L35.7813 20.0301L36.7014 19.1103L35.5759 18.4578L35.0743 19.3229ZM19.1143 10.0695L18.6005 10.9274L18.6066 10.931L18.6127 10.9346L19.1143 10.0695ZM13.4275 12.3662L14.3761 12.6828L14.3859 12.6532L14.3939 12.6231L13.4275 12.3662ZM13.427 12.3703H12.427V12.7846L12.7199 13.0775L13.427 12.3703ZM28.434 27.3752L35.7813 20.0301L34.3673 18.6157L27.02 25.9608L28.434 27.3752ZM35.5759 18.4578L19.6159 9.20439L18.6127 10.9346L34.5727 20.188L35.5759 18.4578ZM19.6281 9.21161C18.8983 8.77445 18.0444 8.52151 17.1326 8.52151V10.5215C17.6698 10.5215 18.1701 10.6696 18.6005 10.9274L19.6281 9.21161ZM17.1326 8.52151C14.8954 8.52151 13.0102 10.0435 12.4611 12.1093L14.3939 12.6231C14.7156 11.4131 15.823 10.5215 17.1326 10.5215V8.52151ZM12.4789 12.0496C12.4238 12.2149 12.427 12.3549 12.427 12.3703H14.427C14.427 12.3612 14.4278 12.4118 14.4218 12.4705C14.4145 12.5416 14.3994 12.6129 14.3761 12.6828L12.4789 12.0496ZM12.7199 13.0775L27.0199 27.3755L28.434 25.9612L14.134 11.6632L12.7199 13.0775Z" fill="black" mask="url(#path-10-inside-4_56_15)"/>
<path d="M63.193 13.042H59.3035V14.0045H62.2181C62.1389 14.79 61.8264 15.4066 61.2993 15.8545C60.7723 16.3025 60.0993 16.5274 59.3035 16.5274C58.4306 16.5274 57.691 16.2233 57.0849 15.6192C56.4911 15.0025 56.1891 14.24 56.1891 13.3213C56.1891 12.4026 56.4911 11.6401 57.0849 11.0235C57.691 10.4194 58.4306 10.1172 59.3035 10.1172C59.7515 10.1172 60.1786 10.1943 60.5701 10.3631C60.9618 10.5318 61.2764 10.7672 61.5222 11.0694L62.2618 10.3298C61.9264 9.94846 61.5014 9.65686 60.9742 9.44434C60.4472 9.23181 59.8972 9.12981 59.3034 9.12981C58.1389 9.12981 57.1515 9.53393 56.3452 10.3402C55.539 11.1485 55.1348 12.1443 55.1348 13.3213C55.1348 14.4983 55.5389 15.4963 56.3452 16.3026C57.1515 17.1087 58.1389 17.513 59.3034 17.513C60.5263 17.513 61.5013 17.1213 62.2513 16.3254C62.9117 15.663 63.2491 14.7672 63.2491 13.6464C63.2491 13.4568 63.2262 13.2547 63.1929 13.0422L63.193 13.042ZM64.6998 9.3088V17.3337H69.385V16.3483H65.731V13.8026H69.0268V12.84H65.731V10.2963H69.385V9.30877L64.6998 9.3088ZM75.9548 10.2964V9.3088H70.4403V10.2964H72.682V17.3337H73.7132V10.2964H75.9548ZM80.9473 9.3088H79.9161V17.3337H80.9473V9.3088ZM87.7539 10.2964V9.3088H82.2395V10.2964H84.481V17.3337H85.5122V10.2964H87.7539ZM98.1599 10.3526C97.364 9.53387 96.3891 9.12974 95.2245 9.12974C94.0579 9.12974 93.083 9.53386 92.2871 10.3401C91.4913 11.136 91.0997 12.1338 91.0997 13.3212C91.0997 14.5086 91.4913 15.5066 92.2871 16.3025C93.083 17.1086 94.0579 17.5129 95.2245 17.5129C96.3786 17.5129 97.364 17.1087 98.1599 16.3025C98.9557 15.5067 99.3473 14.5087 99.3473 13.3212C99.3473 12.1442 98.9557 11.1483 98.1599 10.3526V10.3526ZM93.0267 11.0234C93.6204 10.4193 94.3496 10.1172 95.2245 10.1172C96.0974 10.1172 96.8266 10.4193 97.4099 11.0234C98.0036 11.6171 98.2952 12.392 98.2952 13.3212C98.2952 14.2525 98.0036 15.0253 97.4099 15.6191C96.8266 16.2232 96.0974 16.5274 95.2245 16.5274C94.3496 16.5274 93.6204 16.2232 93.0267 15.6191C92.4454 15.0129 92.1538 14.2525 92.1538 13.3212C92.1538 12.392 92.4454 11.6296 93.0267 11.0234V11.0234ZM101.797 12.3359L101.754 10.7879H101.797L105.876 17.3336H106.953V9.30872H105.922V14.0044L105.966 15.5524H105.922L102.022 9.30872H100.766V17.3336H101.797V12.3359Z" fill="white" stroke="white" stroke-width="0.26666" stroke-miterlimit="10"/>
</g>
<defs>
<clipPath id="clip0_56_15">
<rect width="180" height="53.333" fill="white"/>
</clipPath>
</defs>
</svg>
